Disc 5 Of 9

20.The Yob                               : 720x556 57m 30s
21.Didn't You Kil My Brother             : 720x560 53m 15s
22.Funseekers                            : 720x554 48m 00s 

Note. Video/Audio Bitrate varies slightly in all 3 clips

Format                                   : MPEG-4
File size                                : 1.19 GiB
Duration                                 : 2h 38mn 47s
Overall bit rate mode                    : Variable
Overall bit rate                         : 1 081 Kbps

Video
Format settings, CABAC                   : Yes
Format settings, ReFrames                : 1 frame
Codec ID                                 : avc1
Duration                                 : 2h 38mn 47s
Bit rate mode                            : Variable
Bit rate                                 : 996 Kbps
Frame rate mode                          : Constant
Frame rate                               : 25.000 fps
Bit depth                                : 8 bits
Scan type                                : Progressive
Bits/(Pixel*Frame)                       : 0.100
Stream size                              : 1.107 GiB (93%)
Writing library                          : x264 core

Audio
Format                                   : AAC
Duration                                 : 2h 38mn 47s
Bit rate mode                            : Variable
Bit rate                                 : 79.1 Kbps
Maximum bit rate                         : 88.5 Kbps
Channel(s)                               : 2 channels
Channel positions                        : Front: L R
Sampling rate                            : 48.0 KHz
Compression mode                         : Lossy
Stream size                              : 83 MiB (7%)
Language                                 : English
Subtitles                                : None

IMDB.  http://www.imdb.com/title/tt0083402/

Screens.  http://bayimg.com/FankGAaEc

          http://bayimg.com/fankhaAEc

          http://bayimg.com/fAnkiAAEc  

Enjoy.